<svg xmlns="http://www.w3.org/2000/svg" viewBox="0 0 128 128">
  <path fill="#433e3f" d="M124.9 64.9C119.5 40.2 101.9 21.6 77 15.5V11C77 6.1 73.1 2 68.3 2H55.4C50.6 2 46.7 5.9 46.7 10.7V15.3C21.8 21.1 4.1 39.5-1.5 64.3c-1.3 5.4-1.3 11 .1 16.4 5.3 25 23 43.6 48.2 49.6V117c0 4.8 3.9 8.7 8.7 8.7H69c4.8 0 8.7-3.9 8.7-8.7V114.7c25.4-6.3 43-25.1 48.4-50.5 1.3-5.5 1.4-11-.1-16.4l-11.1 17.1zm-80.1-41.5l14 21.6c-4.9 3.2-8.5 7.8-10.4 13.1l-25.5-3.8c4.3-13.8 12.3-24.8 21.9-30.9zM78.6 30.7c5.6 1.1 10.9 3.2 15.6 6.1L80.2 58.4c-6.1-9.9-1.6-26.6-1.6-27.7zM43 78.4L18.4 102c-4.4-6.6-7.5-14.1-9.1-22.1l25.6-3.8c1.3 5.2 4.1 9.9 8.1 12.3zm31.8-9.9c1.9 4.3 1.9 9.1 0 13.4s-5.4 7.6-9.8 8.9V64.6c4.6 1.4 7.8 4.7 9.8 8.9v-5.1zm41.4-1c-1.6 8.3-4.8 16.1-9.3 22.9L82.1 67.2c3.9-2.5 6.7-6.8 7.9-11.8L116 59.2c.2 2.7.2 5.5.1 8.3z"/>
</svg>
