<svg xmlns="http://www.w3.org/2000/svg" viewBox="0 0 448 512">
  <path fill="#3776ab" d="M439.8 200.5c-7.7-30.9-22.3-54.2-53.4-54.2h-40.1v47.4c0 36.8-31.2 67.8-66.8 67.8H172.7c-29.2 0-53.4 25-53.4 54.3v101.8c0 29 25.2 46 53.4 54.3 33.8 9.9 66.3 11.7 106.8 0 26.9-7.8 53.4-23.5 53.4-54.3v-40.7H226.2v-13.6h160.2c31.1 0 42.6-21.7 53.4-54.2 11.2-33.9 11-65.7 0-106.5zM289.3 433.8c-10.2 0-18.6-8.5-18.6-18.7 0-10.2 8.5-18.6 18.6-18.6 10.2 0 18.7 8.5 18.7 18.6 0 10.2-8.5 18.7-18.7 18.7zM152.7 25.7C123.6 17.3 91.1 15.5 50.6 25.7 23.8 33.5 0 49.2 0 80v40.7h106.8v13.6H13.6C-17.5 134.3-6 156 3.4 188.5c7.7 30.9 22.3 54.2 53.4 54.2h40.1v-47.4c0-36.8 31.2-67.8 66.8-67.8h106.8c29.2 0 53.4-25 53.4-54.3V71.4c0-29-25.2-46-53.4-54.3-33.8-9.9-66.3-11.7-106.8 0zM158.7 78.2c10.2 0 18.6 8.5 18.6 18.7 0 10.2-8.5 18.6-18.6 18.6-10.2 0-18.7-8.5-18.7-18.6 0-10.2 8.5-18.7 18.7-18.7z"/>
</svg>
