<svg xmlns="http://www.w3.org/2000/svg" viewBox="0 0 128 128">
  <path fill="#3178c6" d="M1.4 1.4h125.2v125.2H1.4z"/>
  <path fill="#fff" d="M109.1 100.8c-1.5-3-4.1-5.3-7.5-6.8-2.6-1.1-6.1-1.7-10.6-1.7-4.1 0-7.3.7-9.4 2.1-2 1.4-3.5 3.5-4.5 6.4-1 2.8-1.5 6.3-1.5 10.4 0 5.4.9 9.8 2.6 13.1 1.7 3.3 4.2 5.8 7.4 7.5 3.2 1.7 7.2 2.5 11.9 2.5 5.5 0 9.8-1.2 12.9-3.7 3.1-2.5 5.2-6 6.3-10.5h-11.2c-1.2 4.4-4.8 6.5-10.3 6.5-3.3 0-5.8-.9-7.3-2.6-1.6-1.8-2.4-4.7-2.6-8.7h32.5c.1-1.1.2-2.3.2-3.8 0-7.1-1.5-12.8-4.5-16.7l-.4-.5zm-33.1 23.4c.1 4 1 6.8 2.5 8.7s4 2.7 7.5 2.7c3.4 0 5.9-.9 7.4-2.6.9-1.1 1.6-2.6 1.9-4.8h-19.3zM25 105.8c-1.6-2.4-3.8-4.1-6.6-5.1-2.2-.8-4.9-1.2-8.3-1.2-3.3 0-6.1.4-8.3 1.2-2.3.8-4.2 2.1-5.7 3.8l7.1 8.3c1.9-2.2 4.1-3.3 6.8-3.3s4.8 1.1 6.1 3.2l-21 44.8H18l3.1-7.1h20.1l3.3 7.1h13.2L25 105.8zm-1.8 35.5h14.5l-7.3-15.8-7.2 15.8z"/>
  <path fill="#fff" d="M110 33H65V18h105V33h-45v105h-15V33z"/>
</svg>
